<?xml version="1.0" standalone="no"?>
<!DOCTYPE svg PUBLIC "-//W3C//DTD SVG 20010904//EN"
 "http://www.w3.org/TR/2001/REC-SVG-20010904/DTD/svg10.dtd">
<svg version="1.0" xmlns="http://www.w3.org/2000/svg"
 width="394.000000pt" height="221.000000pt" viewBox="0 0 394.000000 221.000000"
 preserveAspectRatio="xMidYMid meet">

<g transform="translate(0.000000,221.000000) scale(0.100000,-0.100000)"
fill="#000000" stroke="none">
<path d="M1685 2000 c-3 -6 1 -7 9 -4 18 7 21 14 7 14 -6 0 -13 -4 -16 -10z"/>
<path d="M2340 1991 c0 -6 4 -13 10 -16 6 -3 7 1 4 9 -7 18 -14 21 -14 7z"/>
<path d="M1439 1823 c-13 -16 -12 -17 4 -4 9 7 17 15 17 17 0 8 -8 3 -21 -13z"/>
<path d="M298 1083 c7 -3 16 -2 19 1 4 3 -2 6 -13 5 -11 0 -14 -3 -6 -6z"/>
<path d="M146 1034 c-14 -15 -26 -31 -26 -37 0 -6 1 -8 3 -6 1 2 15 19 31 37
36 38 30 43 -8 6z"/>
<path d="M770 1010 c-12 -7 -7 -10 18 -10 38 0 72 -30 72 -64 0 -35 -62 -151
-123 -231 l-54 -70 -109 -6 c-113 -6 -198 -31 -226 -68 -11 -14 -11 -14 2 -4
35 27 141 53 215 53 41 0 75 -4 75 -9 0 -5 -31 -38 -69 -73 -71 -68 -175 -128
-220 -128 -66 0 -91 60 -50 116 l21 29 -26 -28 c-49 -53 -44 -120 11 -133 66
-17 163 33 291 152 l74 67 51 -22 c29 -12 58 -25 65 -28 6 -3 12 0 12 6 0 7
-25 23 -55 37 -30 14 -55 29 -55 33 0 4 9 16 21 27 39 35 138 193 155 247 14
47 15 58 3 83 -11 23 -22 30 -49 32 -19 1 -42 -2 -50 -8z"/>
<path d="M105 961 c-12 -40 38 -111 79 -111 17 1 15 4 -9 14 -42 18 -58 41
-58 82 0 39 -3 42 -12 15z"/>
<path d="M2065 957 c-27 -7 -60 -31 -109 -78 -59 -58 -78 -70 -120 -79 -28 -6
-58 -15 -66 -21 -12 -8 -11 -9 5 -5 51 13 95 17 95 10 -1 -5 -12 -22 -25 -38
-22 -28 -27 -29 -62 -20 -28 7 -38 14 -36 28 1 17 0 17 -15 2 -14 -14 -14 -18
-2 -30 8 -8 29 -18 47 -23 l32 -8 -42 -57 c-35 -48 -46 -57 -65 -53 -34 8 -49
-6 -22 -20 l22 -12 -32 -36 c-18 -21 -28 -37 -24 -37 5 0 23 16 39 36 30 35
31 36 115 39 82 3 190 32 215 58 7 7 4 7 -10 2 -77 -29 -161 -41 -253 -36 -8
1 7 27 33 61 37 48 54 61 88 70 23 6 64 20 91 30 61 25 67 25 100 -1 36 -28
34 -62 -6 -93 -18 -14 -30 -26 -26 -26 4 0 23 14 43 31 45 40 47 79 6 108
l-29 21 54 54 c60 60 72 106 35 126 -22 11 -23 11 -76 -3z m65 -22 c19 -23 5
-56 -44 -104 l-44 -44 -65 13 -65 13 31 40 c61 77 156 119 187 82z m-136 -165
c5 -5 -23 -18 -63 -30 -40 -12 -74 -21 -76 -18 -2 2 6 18 17 37 20 31 23 33
67 26 25 -4 50 -10 55 -15z"/>
<path d="M1239 910 c-81 -43 -209 -211 -209 -274 0 -31 -50 -62 -69 -43 -16
16 -14 28 11 54 12 13 17 23 10 23 -6 0 -21 -13 -34 -29 -30 -37 -67 -56 -80
-43 -7 7 -2 19 15 36 34 34 20 34 -16 1 -47 -45 -26 -81 30 -51 27 13 30 13
41 -5 11 -18 14 -18 51 -3 30 12 44 13 60 5 30 -16 67 -13 113 9 50 24 48 24
48 5 0 -22 46 -30 74 -12 21 14 25 14 39 -1 15 -15 19 -15 50 0 32 15 35 15
51 -3 15 -18 18 -18 53 -4 38 16 124 77 117 84 -2 2 -18 -7 -36 -21 -38 -29
-92 -58 -108 -58 -6 0 -9 17 -6 46 3 32 1 47 -9 50 -15 6 -74 -22 -124 -60
-45 -33 -75 -35 -68 -3 2 12 8 30 12 41 6 13 -6 7 -39 -18 -61 -46 -114 -63
-146 -46 l-24 13 40 30 c72 56 223 213 229 240 15 58 -12 71 -76 37z m61 -18
c0 -44 -77 -134 -190 -222 -43 -34 -56 -39 -58 -26 -10 48 98 201 173 247 39
25 75 25 75 1z m128 -240 c14 -9 -4 -30 -45 -51 -47 -24 -58 -5 -18 34 25 26
41 30 63 17z"/>
<path d="M3086 882 c5 -25 -2 -37 -52 -91 -58 -63 -172 -157 -180 -149 -6 7
66 116 107 162 19 22 52 52 73 68 21 15 33 28 26 28 -21 0 -155 -142 -187
-197 -21 -38 -32 -50 -40 -42 -17 17 -56 3 -103 -36 -61 -51 -111 -44 -75 11
9 14 15 28 12 30 -2 2 -25 -7 -51 -21 -55 -29 -63 -31 -46 -10 25 30 -4 36
-41 9 -39 -29 -103 -64 -118 -64 -6 0 -9 21 -8 48 2 45 1 47 -24 45 -15 -1
-57 -22 -93 -47 -92 -63 -146 -62 -96 1 24 31 25 43 5 43 -8 0 -15 7 -15 15 0
8 -4 15 -8 15 -12 0 -42 -34 -42 -48 0 -6 -20 -23 -45 -38 -25 -14 -44 -29
-41 -32 3 -3 25 8 48 24 46 31 88 47 88 34 0 -4 -7 -13 -15 -20 -19 -16 -19
-46 -1 -53 18 -7 83 10 92 24 4 6 13 4 25 -7 18 -16 22 -16 53 -2 31 15 34 15
50 -3 15 -18 18 -18 54 -4 20 9 55 30 77 48 l39 31 -23 -37 c-13 -21 -21 -40
-19 -42 2 -3 26 9 52 25 55 35 56 36 56 11 0 -30 23 -43 56 -31 21 8 34 8 51
-1 19 -10 30 -9 62 5 38 18 39 18 60 -3 26 -26 35 -26 89 -1 23 10 42 15 42
11 0 -17 28 -19 56 -5 25 13 30 13 40 0 14 -20 53 -20 81 -1 19 13 21 13 26
-5 6 -23 31 -25 66 -6 14 8 31 12 38 9 14 -6 92 37 113 62 7 9 -11 0 -40 -20
-58 -39 -76 -44 -65 -17 4 9 10 27 12 40 9 37 -39 28 -113 -23 -37 -25 -72
-44 -78 -42 -6 2 -11 24 -11 48 0 41 -2 44 -26 42 -15 -1 -57 -22 -93 -47 -71
-49 -105 -56 -127 -30 -11 14 -10 19 11 36 181 144 244 210 238 249 -2 12 -9
24 -15 27 -9 2 -11 -5 -7 -26z m-698 -230 c10 -7 8 -12 -5 -24 -56 -48 -109
-43 -60 6 27 27 43 31 65 18z m442 -7 c15 -18 15 -17 -27 -39 -64 -32 -83 -15
-32 28 36 30 42 31 59 11z m264 6 c7 -11 -22 -37 -56 -50 -39 -15 -48 7 -14
36 27 23 60 30 70 14z m206 -5 c0 -7 -7 -19 -15 -26 -12 -10 -15 -9 -15 7 0
11 3 23 7 26 11 12 23 8 23 -7z m-44 -52 c-3 -8 -15 -14 -26 -14 -28 0 -26 34
3 55 21 15 22 14 25 -5 2 -12 1 -28 -2 -36z"/>
<path d="M355 880 c-27 -10 -62 -19 -77 -19 -15 -1 -30 -5 -33 -11 -10 -17
154 26 173 45 9 9 -11 4 -63 -15z"/>
<path d="M3663 889 c-18 -5 -33 -14 -33 -18 0 -5 18 -2 39 6 51 20 104 11 131
-24 11 -14 20 -21 20 -16 0 5 -11 20 -24 32 -28 26 -86 35 -133 20z"/>
<path d="M3542 830 c-85 -44 -103 -58 -46 -34 43 18 124 64 124 70 0 6 3 7
-78 -36z"/>
<path d="M3815 809 c3 -9 -1 -33 -9 -53 -8 -20 -11 -36 -6 -36 16 0 33 81 20
94 -8 8 -10 7 -5 -5z"/>
<path d="M961 745 c-11 -19 -16 -35 -11 -35 10 0 50 49 50 61 0 20 -19 7 -39
-26z"/>
<path d="M3024 725 c-18 -14 -17 -14 9 -3 23 10 33 8 65 -9 40 -23 67 -19 92
13 14 18 14 18 -6 2 -25 -22 -57 -23 -74 -3 -16 19 -61 19 -86 0z"/>
<path d="M1276 713 c-11 -11 -6 -23 9 -23 8 0 15 4 15 9 0 13 -16 22 -24 14z"/>
<path d="M3678 643 c7 -3 16 -2 19 1 4 3 -2 6 -13 5 -11 0 -14 -3 -6 -6z"/>
<path d="M1675 281 c-3 -6 3 -9 14 -8 11 0 17 5 15 9 -7 11 -22 10 -29 -1z"/>
<path d="M1310 210 l0 -51 33 3 c31 3 32 5 32 48 0 43 -1 45 -32 48 l-33 3 0
-51z m50 25 c0 -8 -9 -15 -20 -15 -11 0 -20 7 -20 15 0 8 9 15 20 15 11 0 20
-7 20 -15z m-1 -34 c18 -11 5 -31 -20 -31 -18 0 -26 20 -12 33 8 9 15 9 32 -2z"/>
<path d="M1430 210 l0 -50 33 1 c30 2 30 2 5 6 -34 5 -37 30 -5 43 l22 9 -22
0 c-33 1 -29 29 5 34 25 4 25 4 -5 6 l-33 1 0 -50z"/>
<path d="M1540 210 l0 -51 33 3 c31 3 32 5 32 48 0 43 -1 45 -32 48 l-33 3 0
-51z m55 25 c0 -5 -10 -11 -22 -13 -16 -2 -23 2 -23 13 0 11 7 15 23 13 12 -2
22 -7 22 -13z m-6 -34 c18 -11 5 -31 -20 -31 -18 0 -26 20 -12 33 8 9 15 9 32
-2z"/>
<path d="M1660 210 l0 -50 33 1 c30 2 30 2 5 6 -34 5 -37 30 -5 43 l22 9 -22
0 c-33 1 -29 29 5 34 25 4 25 4 -5 6 l-33 1 0 -50z"/>
<path d="M1770 240 c0 -10 9 -24 20 -30 31 -16 26 -44 -6 -36 -17 5 -23 3 -19
-4 9 -15 41 -12 56 6 12 14 10 19 -14 38 -33 26 -34 33 -4 39 19 4 18 4 -5 6
-22 1 -28 -4 -28 -19z"/>
<path d="M1941 208 c1 -29 4 -43 6 -30 5 27 19 28 35 2 7 -11 16 -20 21 -20 4
0 0 11 -9 25 -11 17 -12 25 -4 25 6 0 10 10 8 23 -2 16 -11 23 -30 25 -28 3
-28 3 -27 -50z m44 22 c0 -8 -8 -16 -17 -18 -13 -2 -18 3 -18 18 0 15 5 20 18
18 9 -2 17 -10 17 -18z"/>
<path d="M2060 210 l0 -50 33 1 c30 2 30 2 5 6 -35 5 -39 40 -5 46 l22 4 -22
2 c-33 2 -29 29 5 34 25 4 25 4 -5 6 l-33 1 0 -50z"/>
<path d="M2160 210 l0 -51 33 3 c31 3 32 5 32 48 0 43 -1 45 -32 48 l-33 3 0
-51z m53 25 c1 -5 -6 -11 -15 -13 -11 -2 -18 3 -18 13 0 17 30 18 33 0z m2
-45 c0 -8 -8 -16 -17 -18 -13 -2 -18 3 -18 18 0 15 5 20 18 18 9 -2 17 -10 17
-18z"/>
<path d="M2292 248 c-7 -7 -12 -24 -12 -38 0 -53 57 -69 86 -25 24 36 6 75
-34 75 -15 0 -33 -5 -40 -12z m66 -35 c2 -25 -1 -33 -18 -38 -39 -12 -67 34
-38 63 23 23 53 10 56 -25z"/>
<path d="M2431 208 c1 -29 4 -43 6 -30 5 27 19 28 35 2 7 -11 16 -20 21 -20 4
0 1 10 -7 22 -11 16 -13 25 -5 35 17 20 3 43 -26 43 -24 0 -25 -3 -24 -52z
m44 22 c0 -8 -8 -16 -17 -18 -13 -2 -18 3 -18 18 0 15 5 20 18 18 9 -2 17 -10
17 -18z"/>
<path d="M2540 210 c0 -27 4 -50 10 -50 5 0 7 13 5 30 -5 42 7 44 34 4 13 -19
27 -34 32 -34 5 0 9 23 9 50 0 28 -4 50 -10 50 -5 0 -10 -15 -10 -32 l-1 -33
-28 33 c-15 17 -31 32 -34 32 -4 0 -7 -22 -7 -50z"/>
</g>
</svg>
